<?xml version="1.0"?>
<svg xmlns="http://www.w3.org/2000/svg" height="512px" viewBox="-61 0 512 512" width="512px"><path d="m105 30c0 39.402344 25.609375 72.597656 60.933594 84.761719l9.445312-28.328125c-23.425781-8.175782-40.378906-30.25-40.378906-56.433594 0-7.492188 1.542969-14.59375 4.0625-21.210938-11.679688 3.691407-22.730469 8.804688-33.398438 14.613282-.160156 2.21875-.664062 4.335937-.664062 6.597656zm0 0" fill="#cc0000"/><path d="m354.949219 83.5c-12.519531-17.863281-25.765625-31.183594-41.019531-42.925781-2.625 29.441406-15.441407 55.90625-35.507813 75.386719 6.824219 2.632812 14.121094 4.039062 21.578125 4.039062 24.335938 0 45.675781-14.984375 54.949219-36.5zm0 0" fill="#cc0000"/><path d="m285 30c0-2.742188-.566406-5.324219-.808594-8.003906-10.765625-5.535156-21.863281-10.355469-33.4375-13.808594 2.65625 6.78125 4.246094 14.101562 4.246094 21.8125 0 26.183594-16.953125 48.257812-40.378906 56.433594l9.445312 28.328125c35.328125-12.164063 60.933594-45.359375 60.933594-84.761719zm0 0" fill="#cc0000"/><path d="m36.324219 86.394531c9.898437 19.964844 30.425781 33.605469 53.675781 33.605469 7.457031 0 14.753906-1.40625 21.578125-4.039062-19.460937-18.894532-32.074219-44.363282-35.238281-72.734376-15.277344 12.339844-28.792969 26.785157-40.015625 43.167969zm0 0" fill="#cc0000"/><path d="m305.140625 450h-220.28125l-17.519531-70.121094-25.550782-8.511718c-4.105468-1.371094-7.953124-3.175782-11.789062-5v8.632812c0 74.441406 60.554688 137 135 137h60c74.441406 0 135-62.558594 135-137v-8.632812c-3.835938 1.824218-7.6875 3.628906-11.792969 5l-25.546875 8.511718zm0 0" fill="#cc0000"/><path d="m285 240c8.277344 0 15-6.722656 15-15s-6.722656-15-15-15-15 6.722656-15 15 6.722656 15 15 15zm0 0" fill="#cc0000"/><path d="m19.640625 115.890625c-12.304687 26.425781-19.640625 55.691406-19.640625 86.652344v69.214843c0 32.328126 20.609375 60.921876 51.285156 71.148438l41.160156 13.726562 15.835938 63.367188h41.71875v-60h30v60h30v-60h30v60h41.71875l15.835938-63.367188 41.160156-13.726562c30.675781-10.226562 51.285156-38.820312 51.285156-71.148438v-76.757812c0-28.71875-6.324219-56.335938-17.976562-81.578125-16.570313 22.1875-42.859376 36.578125-72.023438 36.578125-17.484375 0-34.320312-5.238281-48.808594-14.621094-5.660156 3.03125-11.523437 5.605469-17.679687 7.710938l8.65625 25.96875-47.167969 47.152344-47.167969-47.152344 8.65625-25.964844c-6.15625-2.109375-12.019531-4.683594-17.679687-7.714844-14.488282 9.382813-31.324219 14.621094-48.808594 14.621094-28.132812 0-53.710938-13.269531-70.359375-34.109375zm265.359375 64.109375c24.8125 0 45 20.1875 45 45s-20.1875 45-45 45-45-20.1875-45-45 20.1875-45 45-45zm-90 83.789062 40.605469 40.605469-21.210938 21.210938-19.394531-19.394531-19.394531 19.394531-21.210938-21.210938zm-90-83.789062c24.8125 0 45 20.1875 45 45s-20.1875 45-45 45-45-20.1875-45-45 20.1875-45 45-45zm0 0" fill="#cc0000"/><path d="m105 240c8.277344 0 15-6.722656 15-15s-6.722656-15-15-15-15 6.722656-15 15 6.722656 15 15 15zm0 0" fill="#cc0000"/><path d="m225 30c0 16.570312-13.429688 30-30 30s-30-13.429688-30-30 13.429688-30 30-30 30 13.429688 30 30zm0 0" fill="#cc0000"/><path d="m182.167969 160.941406 12.832031 12.847656 12.832031-12.847656-12.832031-38.507812zm0 0" fill="#cc0000"/></svg>
